<svg width="330" height="189" viewBox="0 0 330 189" fill="none" xmlns="http://www.w3.org/2000/svg">
<rect x="0.191528" y="188.49" width="188.155" height="329" transform="rotate(-90.0583 0.191528 188.49)" fill="#B3DCE4"/>
<rect x="112" y="66" width="201" height="53" rx="10" fill="#C4C4C4"/>
<rect x="12" y="124" width="201" height="53" rx="10" fill="#C4C4C4"/>
<rect x="23" y="15" width="93" height="3" rx="1.5" fill="black"/>
<rect x="29" y="25" width="93" height="3" rx="1.5" fill="black"/>
<rect x="23" y="37" width="93" height="3" rx="1.5" fill="black"/>
<rect x="29" y="49" width="93" height="3" rx="1.5" fill="black"/>
<rect x="19" y="131" width="176" height="3" rx="1.5" fill="black"/>
<rect x="29" y="167" width="171" height="3" rx="1.5" fill="black"/>
<rect x="33" y="143" width="160" height="3" rx="1.5" fill="black"/>
<rect x="25" y="155" width="181" height="3" rx="1.5" fill="black"/>
<g clip-path="url(#clip0)">
<path fill-rule="evenodd" clip-rule="evenodd" d="M176 49.9985L158 50L155.026 33.1154L155.981 31.4777L161.519 37.5633L172.415 37.5677L177.996 31.4223L178.974 33.114L176 49.9985V49.9985ZM168.388 25.2069L170.82 16.0806C171 15.4288 171.607 15 172.268 15C173.245 15 173.976 15.9013 173.72 16.8346L171.492 25.2069H172.089L178.411 17.0825C178.886 16.4233 179.822 16.2629 180.5 16.7252C181.178 17.186 181.343 18.096 180.869 18.7552L175.751 25.2069H180.5L180.49 25.2594C180.808 25.8165 183.578 30.6815 184.793 32.8427C184.917 33.0658 185 33.3065 185 33.5427C185 35.0535 182.902 35.561 182.161 34.2427C181.246 32.6167 179.452 29.4608 178.484 27.759L171.464 35.4152H162.519L155.556 27.6467C154.605 29.3179 152.751 32.5802 151.815 34.2427C151.073 35.5654 149 35.0463 149 33.5427C149 33.3065 149.06 33.0658 149.185 32.8427C150.427 30.6348 153.29 25.6065 153.505 25.2302L153.5 25.2069H168.388V25.2069ZM170 31.7694C170 31.3669 169.664 31.0402 169.25 31.0402H164.75C164.336 31.0402 164 31.3669 164 31.7694C164 32.1719 164.336 32.4985 164.75 32.4985H169.25C169.664 32.4985 170 32.1719 170 31.7694Z" fill="black"/>
</g>
<path d="M159.25 92.5C159.25 91.511 160.109 90.7083 161.169 90.7083C162.229 90.7083 163.083 91.511 163.083 92.5C163.083 93.489 162.229 94.2917 161.169 94.2917C160.109 94.2917 159.25 93.489 159.25 92.5ZM171.133 92.5L167.875 97.1583L165.383 94.2917L159.25 101.458H178.417L171.133 92.5ZM188 83.5417V108.625H149.667V103.25H142V76.375H182.25V83.5417H188ZM149.667 99.6667V83.5417H178.417V79.9583H145.833V99.6667H149.667ZM184.167 87.125H153.5V105.042H184.167V87.125Z" fill="black"/>
<path d="M247.25 90.0833H240.105L242.329 87.6985L243.75 88.375L244.933 86.9024L247.25 90.0833ZM248.79 95.2083H235V81.5417H251.107C252.4 84.2955 254.649 84.439 257.75 85.8279V93.7682C254.883 93.4573 250.776 93.324 248.79 95.2083ZM249 84.9583H238.5V91.7917H249V84.9583ZM265.047 81.827C263.637 79.8367 256.243 78.5401 253.249 78.125C252.953 79.367 253.443 80.9318 254.752 81.6715C256.028 82.3924 259.734 83.5131 260.83 84.5791C262.251 85.9594 264.375 92.5536 260.879 97.0192C257.246 96.013 253.459 96.1189 251.403 96.9372C249.385 97.7401 249.63 100.197 251.733 100.431C257.718 101.097 265.011 102.414 269.797 108.875C269.797 108.875 272.984 105.655 276.998 101.314C270.579 96.0984 269.652 88.3203 265.047 81.827V81.827ZM240.687 86.6667C240.446 86.6667 240.25 86.858 240.25 87.0938C240.25 87.3295 240.446 87.5208 240.687 87.5208C240.931 87.5208 241.125 87.3295 241.125 87.0938C241.125 86.858 240.931 86.6667 240.687 86.6667Z" fill="black"/>
<rect x="209" y="66" width="6" height="53" fill="black"/>
<defs>
<clipPath id="clip0">
<rect width="36" height="35" fill="white" transform="translate(149 15)"/>
</clipPath>
</defs>
</svg>
