<svg width="330" height="189" viewBox="0 0 330 189" fill="none" xmlns="http://www.w3.org/2000/svg">
<rect x="0.191544" y="188.49" width="188.155" height="329" transform="rotate(-90.0583 0.191544 188.49)" fill="#B3DCE4"/>
<rect x="17" y="13" width="7" height="165" rx="3.5" fill="#C4C4C4"/>
<path d="M304 16.5C304 14.567 305.567 13 307.5 13V13C309.433 13 311 14.567 311 16.5V174.5C311 176.433 309.433 178 307.5 178V178C305.567 178 304 176.433 304 174.5V16.5Z" fill="#C4C4C4"/>
<path d="M63.5 40C51.0744 40 41 50.0744 41 62.5C41 74.9256 51.0744 85 63.5 85C75.9256 85 86 74.9256 86 62.5C86 50.0744 75.9256 40 63.5 40ZM69.9594 73.4256C63.0519 76.5831 52.3325 55.7444 59.0844 52.2231L61.0587 51.25L64.3325 57.6419L62.3788 58.6037C60.3256 59.7044 64.6006 68.0537 66.7006 67.0356L68.6356 66.0887L71.9356 72.4581L69.9594 73.4256V73.4256Z" fill="black"/>
<g clip-path="url(#clip0)">
<path d="M165.47 78.5281C170.338 78.5281 174.294 74.57 174.294 69.7025C174.294 67.0606 173.126 64.6887 171.283 63.0687C170.634 62.5006 169.904 62.0263 169.111 61.6663C167.999 61.16 166.769 60.8769 165.472 60.8769C164.174 60.8769 162.943 61.16 161.833 61.6663C161.038 62.03 160.306 62.5044 159.661 63.0706C157.814 64.6906 156.646 67.0625 156.646 69.7044C156.646 74.57 160.606 78.5281 165.47 78.5281V78.5281ZM165.5 63.1831C169.102 63.1831 172.023 66.1025 172.023 69.7044C172.023 73.3063 169.102 76.2275 165.5 76.2275C161.898 76.2275 158.977 73.3081 158.977 69.7044C158.977 66.1025 161.898 63.1831 165.5 63.1831ZM175.293 63.875H188V83.1462C188 88.0362 184.036 92 179.146 92H151.972C147.082 92 143 88.0362 143 83.1462V63.875H155.651C154.631 65.5869 154.016 67.5669 154.016 69.7044C154.016 76.0306 159.144 81.1588 165.47 81.1588C171.796 81.1588 176.924 76.0306 176.924 69.7044C176.926 67.5669 176.311 65.5869 175.293 63.875V63.875ZM179.146 47H156.125V56.375H154.25V47H152.375V56.375H150.5V47.1444C149.851 47.2512 149.221 47.4125 148.625 47.6506V56.375H146.75V48.6838C144.496 50.2906 143 52.895 143 55.8538V62H157.012C159.2 59.5963 162.258 58.25 165.47 58.25C168.699 58.25 171.753 59.6094 173.928 62H188V55.8538C188 50.9638 184.036 47 179.146 47V47ZM184.25 56.8719C184.25 57.6331 183.626 58.25 182.853 58.25H178.145C177.374 58.25 176.75 57.6331 176.75 56.8719V52.1281C176.75 51.3669 177.374 50.75 178.145 50.75H182.853C183.626 50.75 184.25 51.3669 184.25 52.1281V56.8719Z" fill="black"/>
</g>
<g clip-path="url(#clip1)">
<path d="M267.5 40.0375C255.074 40.0375 245 50.1119 245 62.5375C245 74.9631 255.074 85.0375 267.5 85.0375C279.926 85.0375 290 74.9631 290 62.5375C290 50.1119 279.926 40.0375 267.5 40.0375V40.0375ZM280.606 53.125L267.5 63.7487L254.392 53.125H280.606ZM280.625 71.875H254.375V55.9281L267.5 66.565L280.625 55.93V71.875Z" fill="black"/>
</g>
<g clip-path="url(#clip2)">
<path d="M236.667 111H213.333C208.732 111 205 114.732 205 119.333V142.667C205 147.268 208.732 151 213.333 151H236.667C241.27 151 245 147.268 245 142.667V119.333C245 114.732 241.27 111 236.667 111ZM236.435 126.395C236.783 134.09 231.045 142.67 220.885 142.67C217.795 142.67 214.92 141.765 212.498 140.212C215.402 140.553 218.298 139.748 220.598 137.947C218.203 137.902 216.183 136.32 215.488 134.147C216.347 134.31 217.19 134.262 217.958 134.053C215.327 133.525 213.512 131.155 213.57 128.62C214.307 129.03 215.152 129.277 216.047 129.305C213.612 127.677 212.922 124.46 214.353 122C217.052 125.31 221.083 127.488 225.63 127.717C224.832 124.295 227.43 121 230.962 121C232.533 121 233.957 121.663 234.953 122.728C236.2 122.483 237.372 122.028 238.43 121.402C238.02 122.68 237.153 123.752 236.025 124.428C237.132 124.295 238.187 124.002 239.167 123.567C238.435 124.66 237.507 125.623 236.435 126.395Z" fill="black"/>
</g>
<g clip-path="url(#clip3)">
<path d="M117.667 111H94.3333C89.7317 111 86 114.732 86 119.333V142.667C86 147.268 89.7317 151 94.3333 151H117.667C122.27 151 126 147.268 126 142.667V119.333C126 114.732 122.27 111 117.667 111ZM112.667 122.667H109.46C108.435 122.667 107.667 123.087 107.667 124.148V126H112.667L112.27 131H107.667V144.333H102.667V131H99.3333V126H102.667V122.795C102.667 119.425 104.44 117.667 108.435 117.667H112.667V122.667Z" fill="black"/>
</g>
<defs>
<clipPath id="clip0">
<rect width="45" height="45" fill="white" transform="translate(143 47)"/>
</clipPath>
<clipPath id="clip1">
<rect width="45" height="45" fill="white" transform="translate(245 40)"/>
</clipPath>
<clipPath id="clip2">
<rect width="40" height="40" fill="white" transform="translate(205 111)"/>
</clipPath>
<clipPath id="clip3">
<rect width="40" height="40" fill="white" transform="translate(86 111)"/>
</clipPath>
</defs>
</svg>
