<svg width="330" height="189" viewBox="0 0 330 189" fill="none" xmlns="http://www.w3.org/2000/svg">
<rect x="0.191528" y="188.49" width="188.155" height="329" transform="rotate(-90.0583 0.191528 188.49)" fill="#B3DCE4"/>
<rect x="18" y="16" width="57" height="52" rx="5" fill="#C4C4C4"/>
<rect x="102" y="16" width="57" height="52" rx="5" fill="#C4C4C4"/>
<rect x="185" y="16" width="57" height="52" rx="5" fill="#C4C4C4"/>
<rect x="261" width="68" height="188" fill="#C4C4C4"/>
<rect x="18" y="81" width="57" height="52" rx="5" fill="#C4C4C4"/>
<rect x="102" y="81" width="57" height="52" rx="5" fill="#C4C4C4"/>
<rect x="185" y="81" width="57" height="52" rx="5" fill="#C4C4C4"/>
<rect x="18" y="146" width="57" height="27" rx="5" fill="#C4C4C4"/>
<rect x="102" y="146" width="57" height="27" rx="5" fill="#C4C4C4"/>
<rect x="185" y="146" width="57" height="27" rx="5" fill="#C4C4C4"/>
<g clip-path="url(#clip0)">
<path fill-rule="evenodd" clip-rule="evenodd" d="M35 120V114.167H57V120H35ZM55.453 107.167C56.709 107.179 57.987 108.393 58 110.083C58.012 111.693 56.824 113 55.375 113C54.347 113 53.455 112.342 53.025 111.383C52.595 112.342 51.703 113 50.675 113C49.656 113 48.772 112.354 48.338 111.411C47.902 112.354 47.019 113 46 113C44.981 113 44.098 112.354 43.663 111.411C43.228 112.354 42.344 113 41.325 113C40.297 113 39.406 112.342 38.975 111.383C38.544 112.342 37.653 113 36.625 113C35.176 113 33.988 111.693 34 110.083C34.013 108.393 35.292 107.179 36.546 107.167H55.453V107.167ZM38.745 100.167H53.44V100.172C54.867 100.268 56 101.588 56 103.199C56 104.872 54.778 106.231 53.274 106.231C52.245 106.231 51.349 105.355 50.885 104.419C50.42 105.355 49.524 106.231 48.496 106.231C47.38 106.231 46.42 105.484 45.998 104.417C45.576 105.484 44.616 106.231 43.501 106.231C42.474 106.231 41.579 105.356 41.114 104.421C40.649 105.356 39.754 106.231 38.726 106.231C37.222 106.231 36 104.872 36 103.199C36 101.526 37.222 100.167 38.726 100.167H38.745ZM46 95.3297C45.546 93.0582 43.521 94.2155 44.469 96.0028C45.234 97.446 45.564 98.279 45.595 99.623C44.217 97.621 41.998 96.312 42 94.3508C42.002 92.8493 42.941 92 44.001 92C44.705 92 45.522 92.2998 46 93.0302C46.485 92.3302 47.313 92.0082 48 92.0012C49.06 91.9907 49.998 92.7817 50 94.3508C50.002 96.312 47.854 97.5988 46.405 99.623C46.436 98.279 46.766 97.446 47.531 96.0028C48.479 94.2155 46.442 93.0768 46 95.3297V95.3297Z" fill="black"/>
</g>
<path fill-rule="evenodd" clip-rule="evenodd" d="M130.5 28C138.503 28 145 34.0491 145 41.5C145 48.9509 138.503 55 130.5 55C122.497 55 116 48.9509 116 41.5C116 34.0491 122.497 28 130.5 28ZM130.489 51.3359L130.42 51.3393L129.544 51.4349L128.897 51.5057L128.019 51.6014C127.693 51.6363 127.453 51.9141 127.49 52.2258C127.528 52.5284 127.825 52.7545 128.161 52.7185L130.562 52.4575C130.885 52.4204 131.13 52.1481 131.091 51.8331C131.053 51.5429 130.792 51.337 130.493 51.3359H130.489ZM135.777 51.4079C135.967 51.6554 136.344 51.7195 136.62 51.5361L138.584 50.2244C138.848 50.0466 138.92 49.6979 138.723 49.4414C138.523 49.1849 138.149 49.132 137.879 49.3109L135.916 50.6226C135.648 50.8004 135.582 51.1514 135.777 51.4079ZM123.86 50.5338C124.086 50.7531 124.469 50.7655 124.715 50.5461L126.452 48.9824C126.686 48.7697 126.702 48.4165 126.467 48.1881C126.23 47.962 125.85 47.9598 125.612 48.1746L123.874 49.7384C123.637 49.9499 123.627 50.3065 123.86 50.5338ZM130.026 48.0464C129.906 48.3299 130.053 48.6595 130.367 48.7765L132.616 49.6034C132.92 49.7136 133.273 49.5809 133.398 49.2861C133.522 48.9925 133.366 48.6696 133.058 48.556L130.811 47.7303C130.505 47.6166 130.152 47.755 130.026 48.0464V48.0464ZM135.921 45.4015C135.72 45.4026 135.524 45.496 135.408 45.6681C135.234 45.9257 135.316 46.2745 135.603 46.4421L137.657 47.6301C137.935 47.7887 138.308 47.7168 138.487 47.4479C138.666 47.179 138.574 46.8359 138.294 46.6739L137.543 46.2396L136.99 45.9201L136.241 45.4859C136.142 45.4285 136.033 45.4015 135.924 45.4015H135.921V45.4015ZM120.526 46.2036C120.526 46.5085 120.795 46.7639 121.133 46.7639L123.551 46.7571C123.877 46.7538 124.153 46.5096 124.151 46.1924C124.149 45.8762 123.877 45.631 123.546 45.6321L121.128 45.6389C120.8 45.6389 120.528 45.8897 120.526 46.2036V46.2036ZM142.09 46.2362C142.355 46.0574 142.419 45.7052 142.22 45.4499L140.79 43.6352C140.596 43.3911 140.221 43.3281 139.947 43.5149C139.674 43.7028 139.62 44.0526 139.816 44.3012L141.246 46.1159C141.439 46.3634 141.817 46.4207 142.09 46.2362ZM130.5 37C133.168 37 135.333 39.016 135.333 41.5C135.333 43.984 133.168 46 130.5 46C127.832 46 125.667 43.984 125.667 41.5C125.667 39.016 127.832 37 130.5 37ZM123.975 40.9386C123.712 40.7575 123.332 40.8081 123.132 41.0624L121.709 42.8815C121.518 43.1279 121.567 43.48 121.842 43.6667C122.117 43.8512 122.491 43.7927 122.686 43.543L124.109 41.7239C124.304 41.4775 124.247 41.1243 123.975 40.9386V40.9386ZM118.03 39.7562C117.745 39.9047 117.635 40.2467 117.8 40.5224L118.985 42.4844C119.147 42.7487 119.51 42.8534 119.806 42.6981C120.102 42.5429 120.2 42.2009 120.038 41.932L118.853 39.9711C118.693 39.7034 118.325 39.6044 118.03 39.7562V39.7562ZM139.552 40.1601C139.446 40.1613 139.339 40.1871 139.242 40.2411L137.176 41.41C136.898 41.5698 136.798 41.9118 136.974 42.1829C137.152 42.4518 137.522 42.5316 137.804 42.3719L138.558 41.9444L139.115 41.6294L139.871 41.203C140.152 41.0444 140.245 40.699 140.072 40.4301C139.961 40.2569 139.761 40.1601 139.555 40.1601H139.552V40.1601ZM139.946 37.1913C139.708 37.1924 139.48 37.3229 139.386 37.5479C139.263 37.8426 139.419 38.1644 139.727 38.2769L140.549 38.5773L141.155 38.7989L141.977 39.0993C142.282 39.2129 142.635 39.0723 142.76 38.7809C142.881 38.4974 142.733 38.1689 142.418 38.0519L140.168 37.2295L139.949 37.1913H139.946V37.1913ZM121.045 35.3249L120.922 35.3372C120.601 35.3991 120.389 35.6961 120.459 36.0055L120.965 38.206C121.035 38.503 121.349 38.7032 121.682 38.6369C122.013 38.5694 122.216 38.2701 122.146 37.9698L121.961 37.1654L121.824 36.5725L121.639 35.7693C121.58 35.5083 121.33 35.3249 121.048 35.3249H121.045V35.3249ZM139.273 34.3517C139.102 34.0919 138.73 34.0053 138.441 34.1706L136.387 35.3575C136.11 35.5195 136.014 35.8626 136.192 36.1315C136.373 36.3993 136.743 36.4757 137.025 36.3137L139.079 35.1269C139.358 34.966 139.449 34.6195 139.273 34.3517ZM126.39 36.1259C126.583 35.8795 126.527 35.5263 126.253 35.3406L124.293 34.0244C124.027 33.8478 123.65 33.895 123.451 34.1515C123.252 34.4091 123.318 34.7567 123.587 34.9367L125.547 36.2541C125.813 36.4341 126.191 36.3801 126.39 36.1259V36.1259ZM132.638 34.2021C132.639 33.8973 132.373 33.6408 132.033 33.6396L129.617 33.6374C129.289 33.6396 129.014 33.8826 129.013 34.1999C129.014 34.516 129.284 34.7624 129.616 34.7635L132.033 34.7646C132.362 34.7658 132.635 34.516 132.638 34.2021V34.2021ZM133.808 30.736C133.57 30.7382 133.344 30.8687 133.25 31.0938C133.128 31.3885 133.285 31.7103 133.593 31.8228L134.416 32.1209L135.023 32.3403L135.846 32.6384C136.151 32.7509 136.504 32.6103 136.627 32.3178C136.747 32.0343 136.598 31.7057 136.283 31.5899L134.031 30.7731L133.812 30.736H133.808ZM128.591 30.7686C128.475 30.484 128.127 30.3333 127.81 30.4446L125.553 31.249C125.249 31.3593 125.084 31.6787 125.205 31.9746C125.327 32.2694 125.675 32.41 125.984 32.2998L128.243 31.4954C128.55 31.3874 128.709 31.0634 128.591 30.7686V30.7686Z" fill="black"/>
<path fill-rule="evenodd" clip-rule="evenodd" d="M123.079 102.333H127.125V102.908L128.25 103.068V102.333H132.75V103.708L133.875 103.867V102.333H138.375V104.507L139.5 104.667V114L138.375 113.611V121H122.625V112.5L121.5 112.833V102.109L123.079 102.333ZM123.75 109.74L129.426 108.058L137.25 110.762V106.702L123.75 104.783V109.74ZM127.125 101.167H122.625V97.6667H127.125V101.167ZM132.75 101.167H128.25V97.6667H132.75V101.167ZM138.375 101.167H133.875V97.6667H138.375V101.167ZM127.125 96.5H122.625V93H127.125V96.5ZM132.75 96.5H128.25V93H132.75V96.5ZM138.375 96.5H133.875V93H138.375V96.5Z" fill="black"/>
<path fill-rule="evenodd" clip-rule="evenodd" d="M218.981 51.75C219.648 51.75 220.189 52.254 220.189 52.875C220.189 53.496 219.648 54 218.981 54H208.019C207.352 54 206.811 53.496 206.811 52.875C206.811 52.254 207.352 51.75 208.019 51.75H208.667C210.341 51.5104 211.091 50.544 211.083 49.2773C205.924 48.3098 201.947 44.3093 201.417 39.375H225.583C225.053 44.3093 221.076 48.3098 215.917 49.2773C215.936 50.5564 216.659 51.5104 218.333 51.75H218.981ZM224.179 38.25H202.821C202.693 37.8 202.625 37.3298 202.625 36.8438C202.625 31.0905 210.907 29.4795 212.849 35.4375C213.222 32.7015 211.534 29.997 208.112 29.8215C209.186 28.1362 211.198 27 213.5 27C216.004 27 218.163 28.3432 219.148 30.276L222.666 27L224.373 28.5896L217.695 34.8064L218.976 36L222.445 32.7713C223.634 33.7961 224.375 35.2417 224.375 36.8438C224.375 37.3286 224.307 37.8 224.179 38.25Z" fill="black"/>
<path fill-rule="evenodd" clip-rule="evenodd" d="M51.125 55H39.875L37.625 38.0833H53.375L51.125 55ZM50.459 42.9167H40.541L41.1834 47.75H49.8166L50.459 42.9167ZM52.2939 33.25C52.2939 34.3641 53.5224 35.2051 54.5 35.2051V36.875H36.5V35.2051C37.4788 35.2051 38.75 34.3629 38.75 33.25H52.2939ZM43.5976 32.415C46.769 29.8256 42.9294 29.5718 43.6842 27.7412C41.0281 30.2944 44.6405 30.3621 43.5976 32.415ZM46.3944 32.4138C51.1599 28.5013 45.4077 28.7079 46.5125 26C42.7077 29.4981 47.9289 29.5755 46.3944 32.4138Z" fill="black"/>
<g clip-path="url(#clip1)">
<path fill-rule="evenodd" clip-rule="evenodd" d="M208.148 97.6139C216.013 99.3375 221.319 102.762 224.168 112.248L201 119L208.148 97.6139ZM206.831 111.418C208.118 111.418 209.163 112.391 209.163 113.584C209.163 114.78 208.118 115.751 206.831 115.751C205.543 115.751 204.499 114.78 204.499 113.584C204.499 112.391 205.543 111.418 206.831 111.418ZM212.388 108.288C213.605 108.678 214.25 109.913 213.83 111.043C213.409 112.173 212.079 112.773 210.863 112.382C210.863 112.382 210.145 112.147 210.375 111.534C210.603 110.921 211.32 111.153 211.32 111.153C211.807 111.311 212.339 111.071 212.508 110.619C212.675 110.165 212.417 109.673 211.931 109.514C211.931 109.514 211.197 109.333 211.444 108.673C211.668 108.072 212.388 108.288 212.388 108.288V108.288ZM209.329 96.0583C207.713 95.5794 208.244 93 210.2 93L210.33 93.0043C220.02 94.4582 226.669 101.316 228.991 110.336L229 110.501C229 112.174 226.226 112.702 225.628 111.285C223.115 102.831 217.663 97.8967 209.329 96.0583V96.0583ZM217.912 108.168C218.877 108.168 219.661 108.897 219.661 109.793C219.661 110.691 218.877 111.418 217.912 111.418C216.945 111.418 216.161 110.691 216.161 109.793C216.161 108.897 216.945 108.168 217.912 108.168ZM208.658 108.111C207.404 107.836 206.627 106.668 206.923 105.505C207.218 104.341 208.476 103.619 209.728 103.894C209.728 103.894 210.467 104.06 210.308 104.692C210.147 105.325 209.408 105.159 209.408 105.159C208.906 105.049 208.404 105.338 208.286 105.804C208.167 106.269 208.478 106.737 208.979 106.846C208.979 106.846 209.728 106.958 209.555 107.639C209.398 108.258 208.658 108.111 208.658 108.111V108.111ZM214.995 101.67C216.282 101.67 217.327 102.641 217.327 103.836C217.327 105.032 216.282 106.002 214.995 106.002C213.707 106.002 212.662 105.032 212.662 103.836C212.662 102.641 213.707 101.67 214.995 101.67Z" fill="black"/>
</g>
<defs>
<clipPath id="clip0">
<rect width="24" height="28" fill="white" transform="translate(34 92)"/>
</clipPath>
<clipPath id="clip1">
<rect width="28" height="26" fill="white" transform="translate(201 93)"/>
</clipPath>
</defs>
</svg>
