{
  "accessors": [
    {
      "bufferView": 2,
      "componentType": 5126,
      "count": 410,
      "max": [
        0.75860625505447388,
        2.0177383422851562,
        1.2644448280334473
      ],
      "min": [
        -0.75860625505447388,
        1.1698124408721924,
        0.16961294412612915
      ],
      "type": "VEC3"
    },
    {
      "bufferView": 2,
      "byteOffset": 4920,
      "componentType": 5126,
      "count": 410,
      "max": [
        0.89612460136413574,
        0.99981379508972168,
        0.9999992847442627
      ],
      "min": [
        -0.89612460136413574,
        -0.99984622001647949,
        -0.99830752611160278
      ],
      "type": "VEC3"
    },
    {
      "bufferView": 1,
      "componentType": 5126,
      "count": 410,
      "max": [
        0.95061200857162476,
        0.98999804258346558
      ],
      "min": [
        0.011982619762420654,
        0.0033280104398727417
      ],
      "type": "VEC2"
    },
    {
      "bufferView": 0,
      "componentType": 5125,
      "count": 1716,
      "max": [
        409
      ],
      "min": [
        0
      ],
      "type": "SCALAR"
    },
    {
      "bufferView": 2,
      "byteOffset": 9840,
      "componentType": 5126,
      "count": 2880,
      "max": [
        0.7170301079750061,
        0.64923059940338135,
        1.0023385286331177
      ],
      "min": [
        -0.71538937091827393,
        -0.80042111873626709,
        -0.827964186668396
      ],
      "type": "VEC3"
    },
    {
      "bufferView": 2,
      "byteOffset": 44400,
      "componentType": 5126,
      "count": 2880,
      "max": [
        0.99507588148117065,
        0.99543237686157227,
        0.99735456705093384
      ],
      "min": [
        -0.99507582187652588,
        -0.99371534585952759,
        -0.99874395132064819
      ],
      "type": "VEC3"
    },
    {
      "bufferView": 1,
      "byteOffset": 3280,
      "componentType": 5126,
      "count": 2880,
      "max": [
        0.89408469200134277,
        0.99067109823226929
      ],
      "min": [
        0.020305143669247627,
        0.014489085413515568
      ],
      "type": "VEC2"
    },
    {
      "bufferView": 0,
      "byteOffset": 6864,
      "componentType": 5125,
      "count": 4320,
      "max": [
        2879
      ],
      "min": [
        0
      ],
      "type": "SCALAR"
    },
    {
      "bufferView": 2,
      "byteOffset": 78960,
      "componentType": 5126,
      "count": 26400,
      "max": [
        1.1253594160079956,
        1.0723488330841064,
        1.1264051198959351
      ],
      "min": [
        -1.0581762790679932,
        -1.4924904108047485,
        -1.1264051198959351
      ],
      "type": "VEC3"
    },
    {
      "bufferView": 2,
      "byteOffset": 395760,
      "componentType": 5126,
      "count": 26400,
      "max": [
        0.99850136041641235,
        0.999339759349823,
        0.99934571981430054
      ],
      "min": [
        -0.99999934434890747,
        -0.99885058403015137,
        -0.99934571981430054
      ],
      "type": "VEC3"
    },
    {
      "bufferView": 1,
      "byteOffset": 26320,
      "componentType": 5126,
      "count": 26400,
      "max": [
        0.96026480197906494,
        0.9828190803527832
      ],
      "min": [
        0.014282564632594585,
        0.018369110301136971
      ],
      "type": "VEC2"
    },
    {
      "bufferView": 0,
      "byteOffset": 24144,
      "componentType": 5125,
      "count": 39600,
      "max": [
        26399
      ],
      "min": [
        0
      ],
      "type": "SCALAR"
    },
    {
      "bufferView": 2,
      "byteOffset": 712560,
      "componentType": 5126,
      "count": 15504,
      "max": [
        0.46497207880020142,
        0.88924914598464966,
        1.5424351692199707
      ],
      "min": [
        -1.7823631763458252,
        -0.45236212015151978,
        -1.5424351692199707
      ],
      "type": "VEC3"
    },
    {
      "bufferView": 2,
      "byteOffset": 898608,
      "componentType": 5126,
      "count": 15504,
      "max": [
        0.99727576971054077,
        0.99998241662979126,
        1
      ],
      "min": [
        -0.99818640947341919,
        -0.99840635061264038,
        -1
      ],
      "type": "VEC3"
    },
    {
      "bufferView": 1,
      "byteOffset": 237520,
      "componentType": 5126,
      "count": 15504,
      "max": [
        0.97732186317443848,
        0.95906567573547363
      ],
      "min": [
        0.0083826407790184021,
        0.010303616523742676
      ],
      "type": "VEC2"
    },
    {
      "bufferView": 0,
      "byteOffset": 182544,
      "componentType": 5125,
      "count": 23256,
      "max": [
        15503
      ],
      "min": [
        0
      ],
      "type": "SCALAR"
    },
    {
      "bufferView": 2,
      "byteOffset": 1084656,
      "componentType": 5126,
      "count": 2752,
      "max": [
        1.4048511981964111,
        0.39586502313613892,
        1.6022560596466064
      ],
      "min": [
        -1.4048511981964111,
        -0.30257818102836609,
        0.65721029043197632
      ],
      "type": "VEC3"
    },
    {
      "bufferView": 2,
      "byteOffset": 1117680,
      "componentType": 5126,
      "count": 2752,
      "max": [
        0.99807143211364746,
        0.99751245975494385,
        0.9694141149520874
      ],
      "min": [
        -0.99807178974151611,
        -0.99946433305740356,
        -0.99986588954925537
      ],
      "type": "VEC3"
    },
    {
      "bufferView": 1,
      "byteOffset": 361552,
      "componentType": 5126,
      "count": 2752,
      "max": [
        0.98339611291885376,
        0.96621370315551758
      ],
      "min": [
        0.010209442116320133,
        0.052453018724918365
      ],
      "type": "VEC2"
    },
    {
      "bufferView": 0,
      "byteOffset": 275568,
      "componentType": 5125,
      "count": 4128,
      "max": [
        2751
      ],
      "min": [
        0
      ],
      "type": "SCALAR"
    },
    {
      "bufferView": 2,
      "byteOffset": 1150704,
      "componentType": 5126,
      "count": 192,
      "max": [
        1.388203501701355,
        0.27512958645820618,
        0.90790563821792603
      ],
      "min": [
        -1.388203501701355,
        -0.12378990650177002,
        0.5147784948348999
      ],
      "type": "VEC3"
    },
    {
      "bufferView": 2,
      "byteOffset": 1153008,
      "componentType": 5126,
      "count": 192,
      "max": [
        0.93861907720565796,
        0.95293200016021729,
        0.97246241569519043
      ],
      "min": [
        -0.93861925601959229,
        -0.95293200016021729,
        -0.97246229648590088
      ],
      "type": "VEC3"
    },
    {
      "bufferView": 1,
      "byteOffset": 383568,
      "componentType": 5126,
      "count": 192,
      "max": [
        0.87500011920928955,
        1.0000001192092896
      ],
      "min": [
        0.12500001490116119,
        0
      ],
      "type": "VEC2"
    },
    {
      "bufferView": 0,
      "byteOffset": 292080,
      "componentType": 5125,
      "count": 288,
      "max": [
        191
      ],
      "min": [
        0
      ],
      "type": "SCALAR"
    }
  ],
  "asset": {
    "extras": {
      "author": "alessandrofindus (https://sketchfab.com/alessandrofindus)",
      "license": "CC-BY-4.0 (http://creativecommons.org/licenses/by/4.0/)",
      "source": "https://sketchfab.com/3d-models/multibot-20-drone-6334eb9bea1d4e64bcea344e20921be0",
      "title": "Multibot 2.0 - Drone"
    },
    "generator": "Sketchfab-10.6.0",
    "version": "2.0"
  },
  "bufferViews": [
    {
      "buffer": 0,
      "byteLength": 293232,
      "byteOffset": 0,
      "name": "floatBufferViews",
      "target": 34963
    },
    {
      "buffer": 0,
      "byteLength": 385104,
      "byteOffset": 293232,
      "byteStride": 8,
      "name": "floatBufferViews",
      "target": 34962
    },
    {
      "buffer": 0,
      "byteLength": 1155312,
      "byteOffset": 678336,
      "byteStride": 12,
      "name": "floatBufferViews",
      "target": 34962
    }
  ],
  "buffers": [
    {
      "byteLength": 1833648,
      "uri": "scene.bin"
    }
  ],
  "extensionsRequired": [
    "KHR_materials_pbrSpecularGlossiness"
  ],
  "extensionsUsed": [
    "KHR_materials_pbrSpecularGlossiness"
  ],
  "images": [
    {
      "uri": "textures/BackRockets_diffuse.png"
    },
    {
      "uri": "textures/Body_diffuse.png"
    },
    {
      "uri": "textures/Head2_diffuse.png"
    },
    {
      "uri": "textures/Ears_diffuse.png"
    },
    {
      "uri": "textures/Arms_diffuse.png"
    }
  ],
  "materials": [
    {
      "doubleSided": true,
      "emissiveFactor": [
        0,
        0,
        0
      ],
      "extensions": {
        "KHR_materials_pbrSpecularGlossiness": {
          "diffuseFactor": [
            1,
            1,
            1,
            1
          ],
          "diffuseTexture": {
            "index": 0,
            "texCoord": 0
          },
          "glossinessFactor": 0.19595917942265426,
          "specularFactor": [
            0,
            0,
            0
          ]
        }
      },
      "name": "BackRockets"
    },
    {
      "doubleSided": true,
      "emissiveFactor": [
        0,
        0,
        0
      ],
      "extensions": {
        "KHR_materials_pbrSpecularGlossiness": {
          "diffuseFactor": [
            1,
            1,
            1,
            1
          ],
          "diffuseTexture": {
            "index": 1,
            "texCoord": 0
          },
          "glossinessFactor": 0.67660926983200487,
          "specularFactor": [
            0,
            0,
            0
          ]
        }
      },
      "name": "Body"
    },
    {
      "doubleSided": true,
      "emissiveFactor": [
        0,
        0,
        0
      ],
      "extensions": {
        "KHR_materials_pbrSpecularGlossiness": {
          "diffuseFactor": [
            1,
            1,
            1,
            1
          ],
          "diffuseTexture": {
            "index": 2,
            "texCoord": 0
          },
          "glossinessFactor": 0.19595917942265426,
          "specularFactor": [
            0,
            0,
            0
          ]
        }
      },
      "name": "Head2"
    },
    {
      "doubleSided": true,
      "emissiveFactor": [
        0,
        0,
        0
      ],
      "extensions": {
        "KHR_materials_pbrSpecularGlossiness": {
          "diffuseFactor": [
            1,
            1,
            1,
            1
          ],
          "diffuseTexture": {
            "index": 3,
            "texCoord": 0
          },
          "glossinessFactor": 0.19595917942265426,
          "specularFactor": [
            0,
            0,
            0
          ]
        }
      },
      "name": "Ears"
    },
    {
      "doubleSided": true,
      "emissiveFactor": [
        0,
        0,
        0
      ],
      "extensions": {
        "KHR_materials_pbrSpecularGlossiness": {
          "diffuseFactor": [
            1,
            1,
            1,
            1
          ],
          "diffuseTexture": {
            "index": 4,
            "texCoord": 0
          },
          "glossinessFactor": 0.75508302476454525,
          "specularFactor": [
            0,
            0,
            0
          ]
        }
      },
      "name": "Arms"
    },
    {
      "doubleSided": true,
      "emissiveFactor": [
        0,
        0,
        0
      ],
      "extensions": {
        "KHR_materials_pbrSpecularGlossiness": {
          "diffuseFactor": [
            0.073677894723742907,
            0.067864060321625994,
            0.067864060321625994,
            1
          ],
          "glossinessFactor": 0.80404082057734572,
          "specularFactor": [
            0,
            0,
            0
          ]
        }
      },
      "name": "Hands"
    }
  ],
  "meshes": [
    {
      "name": "BackRocket_BackRockets_0",
      "primitives": [
        {
          "attributes": {
            "NORMAL": 1,
            "POSITION": 0,
            "TEXCOORD_0": 2
          },
          "indices": 3,
          "material": 0,
          "mode": 4
        }
      ]
    },
    {
      "name": "Body_Body_0",
      "primitives": [
        {
          "attributes": {
            "NORMAL": 5,
            "POSITION": 4,
            "TEXCOORD_0": 6
          },
          "indices": 7,
          "material": 1,
          "mode": 4
        }
      ]
    },
    {
      "name": "Head_Head2_0",
      "primitives": [
        {
          "attributes": {
            "NORMAL": 9,
            "POSITION": 8,
            "TEXCOORD_0": 10
          },
          "indices": 11,
          "material": 2,
          "mode": 4
        }
      ]
    },
    {
      "name": "Ear_Ears_0",
      "primitives": [
        {
          "attributes": {
            "NORMAL": 13,
            "POSITION": 12,
            "TEXCOORD_0": 14
          },
          "indices": 15,
          "material": 3,
          "mode": 4
        }
      ]
    },
    {
      "name": "Arms_Arms_0",
      "primitives": [
        {
          "attributes": {
            "NORMAL": 17,
            "POSITION": 16,
            "TEXCOORD_0": 18
          },
          "indices": 19,
          "material": 4,
          "mode": 4
        }
      ]
    },
    {
      "name": "Hands_Hands_0",
      "primitives": [
        {
          "attributes": {
            "NORMAL": 21,
            "POSITION": 20,
            "TEXCOORD_0": 22
          },
          "indices": 23,
          "material": 5,
          "mode": 4
        }
      ]
    }
  ],
  "nodes": [
    {
      "children": [
        1
      ],
      "name": "RootNode (gltf orientation matrix)",
      "rotation": [
        -0.70710678118654746,
        -0,
        -0,
        0.70710678118654757
      ]
    },
    {
      "children": [
        2
      ],
      "name": "RootNode (model correction matrix)"
    },
    {
      "children": [
        3
      ],
      "matrix": [
        1,
        0,
        0,
        0,
        0,
        0,
        1,
        0,
        0,
        -1,
        0,
        0,
        0,
        0,
        0,
        1
      ],
      "name": "e3883ba9dff04b66ab3321fd7ef9739b.fbx"
    },
    {
      "children": [
        4,
        6,
        8,
        10,
        12,
        14,
        16,
        19
      ],
      "name": "RootNode"
    },
    {
      "children": [
        5
      ],
      "matrix": [
        100,
        -1.3456440532625669e-14,
        -4.5420060610090664e-15,
        0,
        4.5420043410182601e-15,
        60.602403614108624,
        -79.544633233126888,
        0,
        1.3456441113180904e-14,
        79.544633233126888,
        60.602403614108624,
        0,
        -5.9604644775390625e-06,
        0,
        1.1920928955078125e-05,
        1
      ],
      "name": "BackRocket"
    },
    {
      "mesh": 0,
      "name": "BackRocket_BackRockets_0"
    },
    {
      "children": [
        7
      ],
      "matrix": [
        100,
        0,
        0,
        0,
        0,
        -1.6292067939183141e-05,
        -99.999999999998678,
        0,
        0,
        99.999999999998678,
        -1.6292067939183141e-05,
        0,
        0,
        91.712066650390625,
        0,
        1
      ],
      "name": "Body"
    },
    {
      "mesh": 1,
      "name": "Body_Body_0"
    },
    {
      "children": [
        9
      ],
      "matrix": [
        7.5497899487686482e-06,
        -99.99999999999973,
        0,
        0,
        7.5497899543197633e-06,
        5.5511151231257827e-13,
        -99.99999999999973,
        0,
        99.999999999999446,
        7.5497899543197633e-06,
        7.5497899487686482e-06,
        0,
        -2.2869964595884085e-05,
        302.921875,
        0,
        1
      ],
      "name": "Head"
    },
    {
      "mesh": 2,
      "name": "Head_Head2_0"
    },
    {
      "children": [
        11
      ],
      "matrix": [
        -2.8212996872056806e-05,
        -99.999999999996021,
        1.6653345369377348e-14,
        0,
        -1.6292067944734256e-05,
        4.5852210917018965e-12,
        -99.999999999998664,
        0,
        99.999999999994699,
        -2.8212996894261266e-05,
        -1.6292067939183141e-05,
        0,
        1.3905234482081141e-05,
        318.11468505859375,
        -20.268756866455078,
        1
      ],
      "name": "Ear"
    },
    {
      "mesh": 3,
      "name": "Ear_Ears_0"
    },
    {
      "children": [
        13
      ],
      "matrix": [
        100,
        0,
        0,
        0,
        -0,
        -1.6292067939183141e-05,
        -99.999999999998678,
        0,
        0,
        99.999999999998678,
        -1.6292067939183141e-05,
        0,
        -1.1920928955078125e-05,
        5.9604644775390625e-06,
        -7.1054273576010019e-13,
        1
      ],
      "name": "Arms"
    },
    {
      "mesh": 4,
      "name": "Arms_Arms_0"
    },
    {
      "children": [
        15
      ],
      "matrix": [
        100,
        0,
        0,
        0,
        -0,
        -1.6292067939183141e-05,
        -99.999999999998678,
        0,
        0,
        99.999999999998678,
        -1.6292067939183141e-05,
        0,
        -1.1920928955078125e-05,
        5.9604644775390625e-06,
        -7.1054273576010019e-13,
        1
      ],
      "name": "Hands"
    },
    {
      "mesh": 5,
      "name": "Hands_Hands_0"
    },
    {
      "children": [
        17
      ],
      "matrix": [
        7.5497899487686482e-06,
        0,
        -99.999999999999716,
        0,
        70.710671234715534,
        70.710685002593095,
        5.3385071474565393e-06,
        0,
        70.710685002592911,
        -70.710671234715733,
        5.3385081910661825e-06,
        0,
        840.748046875,
        1094.0496826171875,
        747.748291015625,
        1
      ],
      "name": "Sun"
    },
    {
      "children": [
        18
      ],
      "matrix": [
        1,
        0,
        0,
        0,
        0,
        2.2204460492503131e-16,
        1,
        0,
        0,
        -1,
        2.2204460492503131e-16,
        0,
        0,
        0,
        0,
        1
      ],
      "name": ""
    },
    {
      "name": ""
    },
    {
      "children": [
        20
      ],
      "matrix": [
        -53.964074173887781,
        -22.154624330242275,
        -81.222234143989041,
        0,
        -12.260159783921239,
        97.514979207291702,
        -18.453069836624451,
        0,
        83.29205939158993,
        -5.2607875650201308e-05,
        -55.33925227453922,
        0,
        549.05523681640625,
        450.38937377929688,
        777.562744140625,
        1
      ],
      "name": "Camera"
    },
    {
      "name": ""
    }
  ],
  "samplers": [
    {
      "magFilter": 9729,
      "minFilter": 9987,
      "wrapS": 10497,
      "wrapT": 10497
    }
  ],
  "scene": 0,
  "scenes": [
    {
      "name": "OSG_Scene",
      "nodes": [
        0
      ]
    }
  ],
  "textures": [
    {
      "sampler": 0,
      "source": 0
    },
    {
      "sampler": 0,
      "source": 1
    },
    {
      "sampler": 0,
      "source": 2
    },
    {
      "sampler": 0,
      "source": 3
    },
    {
      "sampler": 0,
      "source": 4
    }
  ]
}

